<?xml version="1.0" encoding="iso-8859-1"?>
<!-- Uploaded to: SVG Repo, www.svgrepo.com, Generator: SVG Repo Mixer Tools -->
<svg version="1.1" id="Layer_1" xmlns="http://www.w3.org/2000/svg" xmlns:xlink="http://www.w3.org/1999/xlink" 
	 viewBox="0 0 475.764 475.764" xml:space="preserve">
<g>
	<g>
		<path style="fill:#F4661E;" d="M62.064,7.5c20.128,0,36.376,16.248,36.376,36.376S82.192,80.252,62.064,80.252
			S25.688,64.004,25.688,43.876C25.688,23.748,41.936,7.5,62.064,7.5z"/>
		<path style="fill:#F4661E;" d="M413.701,7.5c20.128,0,36.376,16.248,36.376,36.376s-16.248,36.376-36.376,36.376
			s-36.376-16.248-36.376-36.376C377.324,23.748,393.572,7.5,413.701,7.5z"/>
		<rect x="165.13" y="74.19" style="fill:#AFB6BB;" width="145.505" height="54.564"/>
		<rect x="19.625" y="219.694" style="fill:#AFB6BB;" width="42.439" height="72.752"/>
		<rect x="413.701" y="219.694" style="fill:#AFB6BB;" width="42.439" height="72.752"/>
		<polygon style="fill:#767D81;" points="413.701,292.447 413.701,468.265 62.064,468.265 62.064,292.447 62.064,219.694 
			62.064,128.754 165.13,128.754 310.635,128.754 413.701,128.754 413.701,219.694 		"/>
	</g>
	<g>
		<path style="fill:#E7ECED;" d="M347.011,371.262v24.251c0,6.669-5.456,12.125-12.125,12.125H140.879
			c-6.669,0-12.125-5.456-12.125-12.125v-24.251c0-6.669,5.456-12.125,12.125-12.125h194.006
			C341.555,359.136,347.011,364.593,347.011,371.262z"/>
		<path style="fill:#E7ECED;" d="M153.005,189.381c26.797,0,48.501,21.704,48.501,48.502c0,26.797-21.704,48.502-48.501,48.502
			s-48.502-21.704-48.502-48.502C104.503,211.085,126.208,189.381,153.005,189.381z"/>
		<path style="fill:#E7ECED;" d="M322.76,189.381c26.797,0,48.501,21.704,48.501,48.502c0,26.797-21.704,48.502-48.501,48.502
			s-48.502-21.704-48.502-48.502C274.259,211.085,295.963,189.381,322.76,189.381z"/>
	</g>
	<g>
		<path d="M463.639,212.194h-42.438V87.097c20.631-3.57,36.376-21.586,36.376-43.221C457.577,19.683,437.894,0,413.701,0
			c-24.193,0-43.876,19.683-43.876,43.876c0,21.635,15.745,39.651,36.376,43.221v34.156h-88.066V66.689H157.63v54.564H69.564V87.097
			c20.631-3.57,36.376-21.586,36.376-43.221C105.94,19.683,86.258,0,62.064,0S18.188,19.683,18.188,43.876
			c0,21.635,15.745,39.651,36.376,43.221v125.097H12.125v87.752h42.439v175.818H421.2V299.946h42.438v-87.752H463.639z
			 M384.824,43.876C384.824,27.954,397.778,15,413.7,15s28.876,12.954,28.876,28.876S429.622,72.752,413.7,72.752
			S384.824,59.798,384.824,43.876z M33.188,43.876C33.188,27.954,46.142,15,62.064,15S90.94,27.954,90.94,43.876
			S77.987,72.752,62.064,72.752S33.188,59.798,33.188,43.876z M172.63,81.689h57.752v22.813h15V81.689h57.752v39.564H172.63V81.689z
			 M27.125,227.194h27.439v57.752H27.125V227.194z M406.201,460.765H69.564V136.254H406.2v324.511H406.201z M448.639,284.946
			h-27.438v-57.752h27.438V284.946z"/>
		<path d="M209.006,237.883c0-30.88-25.122-56.002-56.001-56.002s-56.001,25.122-56.001,56.002
			c0,30.879,25.122,56.001,56.001,56.001S209.006,268.762,209.006,237.883z M112.003,237.883c0-22.608,18.393-41.002,41.001-41.002
			s41.001,18.394,41.001,41.002s-18.393,41.001-41.001,41.001S112.003,260.491,112.003,237.883z"/>
		<path d="M322.76,181.881c-30.879,0-56.001,25.122-56.001,56.002c0,30.879,25.122,56.001,56.001,56.001
			c30.879,0,56.001-25.122,56.001-56.001C378.762,207.003,353.64,181.881,322.76,181.881z M322.76,278.884
			c-22.608,0-41.001-18.393-41.001-41.001s18.393-41.002,41.001-41.002c22.608,0,41.001,18.394,41.001,41.002
			S345.369,278.884,322.76,278.884z"/>
		<path d="M334.886,351.636H140.879c-10.821,0-19.625,8.804-19.625,19.626v24.251c0,10.821,8.804,19.625,19.625,19.625h194.006
			c10.821,0,19.625-8.804,19.625-19.625v-24.251C354.511,360.439,345.707,351.636,334.886,351.636z M339.511,395.513
			c0,2.507-2.118,4.625-4.625,4.625H140.879c-2.507,0-4.625-2.118-4.625-4.625v-24.251c0-2.508,2.118-4.626,4.625-4.626h194.006
			c2.507,0,4.625,2.118,4.625,4.626L339.511,395.513L339.511,395.513z"/>
	</g>
</g>
</svg>